<svg xmlns="http://www.w3.org/2000/svg" width="1280" height="800" viewBox="0 0 1280 800">
  <defs>
    <linearGradient id="bg" x1="0" y1="0" x2="1" y2="1"><stop stop-color="#e7f2ea"/><stop offset="1" stop-color="#f5f2ea"/></linearGradient>
    <filter id="shadow" x="-20%" y="-20%" width="140%" height="150%"><feDropShadow dx="0" dy="18" stdDeviation="20" flood-color="#17231f" flood-opacity=".16"/></filter>
  </defs>
  <rect width="1280" height="800" fill="url(#bg)"/>
  <text x="72" y="92" fill="#38584b" font-family="Segoe UI, sans-serif" font-size="18" font-weight="700" letter-spacing="3">VIDEO NOTES · 01</text>
  <text x="72" y="153" fill="#17231f" font-family="PingFang SC, Microsoft YaHei, sans-serif" font-size="46" font-weight="800">看见重点，马上留下</text>
  <text x="72" y="195" fill="#617068" font-family="PingFang SC, Microsoft YaHei, sans-serif" font-size="20">输入框聚焦时暂停，写完自动保存并继续播放。</text>
  <g transform="translate(72 238)" filter="url(#shadow)">
    <rect width="1136" height="494" rx="28" fill="#17231f"/>
    <g transform="translate(0 0)">
      <rect width="790" height="494" rx="28" fill="#233c33"/>
      <path d="M0 365 214 248l194 72 190-139 192 119v194H0Z" fill="#38584b" opacity=".68"/>
      <circle cx="397" cy="244" r="58" fill="#fffaf0" opacity=".14"/>
      <path d="m379 210 58 35-58 35Z" fill="#fffaf0"/>
      <rect x="122" y="404" width="548" height="56" rx="10" fill="#101915" opacity=".9"/>
      <text x="396" y="439" fill="#fffaf0" text-anchor="middle" font-family="PingFang SC, Microsoft YaHei, sans-serif" font-size="18">真正重要的是：约束会改变我们寻找答案的方式。</text>
    </g>
    <g transform="translate(790 0)">
      <rect width="346" height="494" rx="0 28 28 0" fill="#f7f4ed"/>
      <text x="26" y="40" fill="#7c857f" font-family="PingFang SC, Microsoft YaHei, sans-serif" font-size="13" font-weight="700">当前视频</text>
      <text x="26" y="68" fill="#17231f" font-family="PingFang SC, Microsoft YaHei, sans-serif" font-size="18" font-weight="800">课程中的关键转折</text>
      <circle cx="310" cy="52" r="8" fill="#d66655"/>
      <rect x="22" y="96" width="302" height="204" rx="18" fill="#fffcf6" stroke="#d9ddd5"/>
      <text x="42" y="127" fill="#38584b" font-family="PingFang SC, Microsoft YaHei, sans-serif" font-size="14" font-weight="700">快速标记</text>
      <rect x="42" y="148" width="262" height="99" rx="12" fill="#fff" stroke="#d9ddd5"/>
      <text x="59" y="182" fill="#45534c" font-family="PingFang SC, Microsoft YaHei, sans-serif" font-size="15">这里值得回看：</text>
      <text x="59" y="209" fill="#45534c" font-family="PingFang SC, Microsoft YaHei, sans-serif" font-size="15">约束如何改变模型结构</text>
      <text x="42" y="275" fill="#8b938e" font-family="Segoe UI, sans-serif" font-size="12">Ctrl + Enter 保存 · Esc 取消</text>
      <rect x="22" y="326" width="302" height="139" rx="18" fill="#fffcf6" stroke="#d9ddd5"/>
      <text x="42" y="358" fill="#38584b" font-family="ui-monospace, monospace" font-size="14" font-weight="800">00:19:57</text>
      <text x="42" y="392" fill="#17231f" font-family="PingFang SC, Microsoft YaHei, sans-serif" font-size="15">已保存到标记时间线</text>
      <rect x="42" y="414" width="242" height="30" rx="15" fill="#dff5e8"/>
      <text x="163" y="434" fill="#38584b" text-anchor="middle" font-family="PingFang SC, Microsoft YaHei, sans-serif" font-size="12" font-weight="700">文字 · 截图 · 前置字幕</text>
    </g>
  </g>
</svg>
